<?xml version="1.0" encoding="UTF-8"?>
<svg version="1.1" viewBox="0 0 73.917 73.917" xml:space="preserve" xmlns="http://www.w3.org/2000/svg" xmlns:xlink="http://www.w3.org/1999/xlink"><g transform="translate(-68.42 -121.51)" display="none"><image x="50.112" y="47.939" width="110.53" height="221.07" preserveAspectRatio="none" xlink:href="../../../../../../Documents/ghostlogo1.png"/></g><circle cx="36.959" cy="36.959" r="36.209" fill="#00000f" stroke="#00000f" stroke-width="1.5"/><g transform="translate(-68.562 -111.85)"><path d="m93.285 163.51-9.1475-4.7643-0.85758-16.103c3.7575-1.7923 4.0636-6.898 4.7643-11.625 1.3978-2.4681 3.0526-4.6424 5.336-6.0983 0.33895 1.3215 1.2824 2.1393 3.1444 2.1916 2.7966 3.5048 4.2912 1.6154 6.2889 1.8104 1.8104 0.75367 3.6209 1.5772 5.4313-0.76229 1.878 1.0143 3.7658 1.9477 5.9077 0.76229 0.59236-0.4931 1.2011-0.96161 1.6199-1.7152 0.71872-0.1373 1.4622 0.14668 2.0963-1.4293 1.8294 1.0343 3.7026 2.7691 5.6219 5.2407 0.72659 4.355 0.59761 9.1012 4.2879 12.101l-0.38114 16.199-8.9569 4.669-1.4293 7.7182c-8.6495 2.2964-16.107 1.6122-22.964-0.57171z" fill="#fff" stroke="#00000f" stroke-width="1.5"/></g><g transform="translate(-68.237 -110.93)"><path d="m105.48 161.94c3.2235 3.084 5.3337 2.3222 5.7648-4.2402-1.1829-2.8162-2.8037-5.8182-5.0025-8.5281l-0.76229-0.0476c-2.1343 2.7792-5.0102 5.7013-4.002 8.4805l-1.2387 1.6199c1.8169 5.5917 3.5506 5.617 5.2407 2.7156z" stroke="#fff" stroke-width=".5"/><path d="m113.39 156.89 1.5246-2.6204c-4.3991-1.8862-5.4344-5.2021-4.7643-9.2428 3.7451-5.547 11.387-4.3999 13.149-0.47643 2.6726 6.4602-1.256 8.6121-5.5266 10.1-1.5646 0.58671-1.0137 0.97566-4.3832 2.2392z" stroke="#fff" stroke-width=".5"/><path d="m98.371 156.2-1.5368-2.4494c4.4343-1.7632 5.4779-4.8626 4.8024-8.6396-3.7751-5.185-11.478-4.1128-13.255-0.44534-2.694 6.0387 1.2661 8.0501 5.5708 9.4412 1.5771 0.54842 1.0218 0.91198 4.4182 2.0931z" stroke="#fff" stroke-width=".48534"/><path d="m105.34 172.94v-1.9534l1.5246-1.334 1.0958 0.95286 0.0953 2.3345 0.0953-2.3345 0.95286-0.76229 0.95286 0.90522 0.0953 2.1439 0.0953-2.1439 1.0958-0.90522 1.0005 1.0005 0.19057 1.7628-0.0476-1.8104 0.90522-1.0005 0.90522 0.85758 0.23821 1.5246-0.14293-1.7152 0.95286-0.71464 0.80994 0.80993 0.76229 1.0482" fill="none" stroke="#000" stroke-width=".7"/><path d="m105.4 172.36v-1.7687l-1.4657-1.2079-1.0535 0.86279-0.0916 2.6617-0.0917-2.6617-0.91606-0.69023-0.91606 0.81965-0.11542 2.1318-0.0679-2.1318-1.0535-0.81965-0.96186 0.90593-0.15939 1.8582 0.02194-1.9014-0.87026-0.90593-0.87026 0.77652-0.22901 1.3805 0.13741-1.553-0.91606-0.64709-0.77866 0.73337-0.75667 0.82996" fill="none" stroke="#00000f" stroke-width=".7"/></g></svg>
